<?xml version="1.0" encoding="UTF-8" standalone="no"?>
<svg
   version="1.1"
   id="Layer_1"
   x="0px"
   y="0px"
   viewBox="0 0 800 800"
   enable-background="new 0 0 1004 788"
   xml:space="preserve"
   sodipodi:docname="json.svg"
   width="800"
   height="800"
   inkscape:version="1.2.2 (b0a84865, 2022-12-01)"
   xmlns:inkscape="http://www.inkscape.org/namespaces/inkscape"
   xmlns:sodipodi="http://sodipodi.sourceforge.net/DTD/sodipodi-0.dtd"
   xmlns="http://www.w3.org/2000/svg"
   xmlns:svg="http://www.w3.org/2000/svg"><defs
   id="defs57" /><sodipodi:namedview
   id="namedview55"
   pagecolor="#ffffff"
   bordercolor="#000000"
   borderopacity="0.25"
   inkscape:showpageshadow="2"
   inkscape:pageopacity="0.0"
   inkscape:pagecheckerboard="0"
   inkscape:deskcolor="#d1d1d1"
   showgrid="false"
   inkscape:zoom="0.29949239"
   inkscape:cx="6.6779661"
   inkscape:cy="394"
   inkscape:window-width="1512"
   inkscape:window-height="916"
   inkscape:window-x="0"
   inkscape:window-y="38"
   inkscape:window-maximized="0"
   inkscape:current-layer="Layer_1" />

	<path
   fill="#000000"
   opacity="0"
   stroke="none"
   d="M 593,789 C 395.33334,789 198.16667,789 1,789 1,526.33331 1,263.66666 1,1 c 334.66666,0 669.33331,0 1004,0 0,262.66666 0,525.33331 0,788 -137.16669,0 -274.33331,0 -412,0 M 454.6044,292.25446 c -0.33331,0.18658 -0.46091,0.46688 -0.47821,0.85583 0,0 0.0121,0.0959 -0.64533,0.26813 -0.90762,1.1701 -1.57003,2.84265 -2.76425,3.42553 -5.97897,2.9184 -12.14486,5.4527 -18.13952,8.34095 -1.95984,0.94424 -4.4628,2.16211 -5.24854,3.91372 -4.91784,10.96341 -10.36758,21.82929 -13.79925,33.27952 -3.58945,11.97674 -5.72852,24.51141 -3.92014,37.50848 0.0525,0.19598 0.0271,0.38132 -0.39117,1.50137 0.41601,3.11777 0.832,6.23554 1.41732,9.77326 0,0 -0.0571,0.44922 -0.38842,1.35821 0.79376,7.68356 0.99542,15.48602 2.50897,23.02509 2.83862,14.13949 6.42621,28.12896 9.72513,42.17547 0.88504,3.76844 1.85251,7.51749 2.76477,11.918 0.0502,0.42352 0.10046,0.84708 -0.0714,2.03726 0.54535,1.87302 0.62451,4.09708 1.72192,5.55436 3.5405,4.70141 7.15122,9.42257 11.28455,13.59106 11.8796,11.98068 23.93246,23.79462 36.12115,35.46106 4.68027,4.47974 10.56754,6.63977 17.15643,6.61359 7.65723,-0.0304 15.31498,-0.0635 22.97187,-0.008 7.27594,0.0532 13.67053,-2.21076 19.01056,-7.15668 5.79071,-5.36346 11.53418,-10.78113 17.18878,-16.28766 6.90643,-6.72555 13.63604,-13.63293 20.55835,-20.34188 6.95617,-6.74195 10.52612,-14.61222 11.98095,-24.4491 1.94233,-13.13294 6.35193,-25.88202 9.10907,-38.9213 1.38385,-6.54455 1.45618,-13.36642 2.15833,-20.11151 0,0 0.0467,-0.0391 0.77222,-0.31024 0.43847,-5.48975 0.87689,-10.97949 1.33331,-17.35638 0.0338,-3.44678 0.0676,-6.89353 0.31244,-11.32938 -0.33765,-7.60239 -0.32379,-15.24014 -1.0846,-22.79993 -1.68579,-16.75134 -8.46118,-31.71243 -17.15063,-45.88827 -0.70148,-1.14435 -2.05432,-2.43296 -3.271,-2.63092 -8.72577,-1.41986 -15.62896,-5.74616 -21.93756,-11.84043 -3.31897,-3.20623 -7.71533,-5.76257 -12.08496,-7.33291 -16.22363,-5.83045 -33.20624,-5.18692 -50.09732,-4.87207 -0.72934,0.0136 -1.4473,0.63739 -2.8244,0.97687 -0.43219,0.0486 -0.86441,0.0972 -2.18402,-0.0576 -9.76047,-0.0982 -18.77146,2.90527 -27.51743,6.83191 -1.3678,0.61404 -2.35147,2.08365 -3.60333,3.14441 0,0 -0.005,0.0914 -0.4946,0.13968 z"
   id="path2" />
























	<g
   id="g242"
   transform="matrix(2.9782006,0,0,2.9782006,-699.56269,-782.11979)"><path
     fill="#a91617"
     opacity="1"
     stroke="none"
     d="m 355.49833,272.17916 c 0.72323,-0.33954 1.44119,-0.96332 2.17053,-0.97693 16.89108,-0.31485 33.87369,-0.95838 50.09732,4.87207 4.36963,1.57034 8.76599,4.12668 12.08496,7.33291 6.3086,6.09427 13.21179,10.42057 21.93756,11.84043 1.21668,0.19796 2.56952,1.48657 3.271,2.63092 8.68945,14.17584 15.46484,29.13693 17.15063,45.88827 0.76081,7.55979 0.74695,15.19754 0.69422,23.06388 -0.87775,-0.4076 -1.36701,-1.07776 -1.85205,-1.75101 -6.66059,-9.24387 -7.85144,-9.54706 -18.43079,-5.2034 -6.14435,2.52277 -12.41156,4.75464 -18.50348,7.39419 -6.01153,2.60474 -12.35583,4.58829 -16.05847,10.9874 -1.33881,2.31381 -4.49097,4.4494 -7.14972,4.97452 -10.3905,2.05215 -20.91467,3.42724 -31.40253,4.56656 -0.0187,-2.64768 -0.0286,-4.80786 -0.0287,-6.96808 -8.3e-4,-34.23126 -0.0676,-68.4628 0.0873,-102.69336 0.0188,-4.14887 -1.14627,-5.62012 -5.31867,-5.29883 -2.88235,0.22196 -5.83038,-0.40945 -8.74908,-0.65954 m 87.3486,43.31802 c -1.3161,-0.74973 -2.68945,-2.21378 -3.93738,-2.11365 -3.56256,0.2858 -8.02337,7.5748 -6.46991,10.83508 0.9151,1.92057 3.09326,4.03757 5.01917,4.40329 1.32843,0.25229 4.0036,-2.04016 4.63897,-3.73458 0.98993,-2.63999 0.75922,-5.73771 0.74915,-9.39014 m -65.16647,59.78308 c 1.81314,-0.49151 3.62631,-0.98303 5.43948,-1.47452 -0.49292,-1.27984 -0.66345,-2.94076 -1.58185,-3.7175 -0.71911,-0.60827 -3.16046,-0.55542 -3.44369,-0.0362 -0.73532,1.34762 -0.70261,3.11435 -0.41394,5.22827 z"
     id="path4" /><path
     fill="#e13132"
     opacity="1"
     stroke="none"
     d="m 355.17139,272.17912 c 3.24564,0.25013 6.19367,0.88154 9.07602,0.65958 4.1724,-0.32129 5.33743,1.14996 5.31867,5.29883 -0.15488,34.23056 -0.0881,68.4621 -0.0873,102.69336 6e-5,2.16022 0.01,4.3204 -0.002,7.16925 -0.0169,0.68866 -0.0664,1.09473 -0.44068,0.98346 -7.41076,-1.29776 -14.4096,-2.85495 -21.49352,-3.57483 -8.44974,-0.85867 -15.37705,-3.81818 -19.77781,-11.49298 0.0854,-0.14777 -0.13015,-0.41037 -0.13015,-0.41037 0,0 -0.32816,0.0906 -0.53571,-0.16904 -0.52924,-0.56424 -0.85086,-0.86883 -1.2569,-1.48245 -9.7297,-4.21545 -19.30179,-8.31656 -29.03921,-11.97794 -11.60492,-4.36352 -11.66635,-4.20016 -19.23746,5.01432 -0.56869,-1.7334 -1.13617,-3.35523 -0.98132,-4.90488 2.12762,-21.28961 7.33136,-41.63474 18.85202,-59.97473 0.67218,-1.07004 1.44333,-2.39887 2.49505,-2.8562 5.82651,-2.534 11.94245,-4.47354 17.55433,-7.39463 2.23281,-1.16229 3.42645,-4.32089 5.09317,-6.57064 0,-3e-5 -0.0121,-0.0959 0.23535,-0.19068 0.49838,-0.27127 0.6561,-0.50946 0.7207,-0.80932 0,0 0.005,-0.0914 0.41431,-0.10315 8.06405,-2.6323 15.69549,-5.32297 23.38534,-7.83506 2.66324,-0.87005 5.47126,-1.2969 8.21317,-1.92617 0.43219,-0.0486 0.86441,-0.0972 1.62353,-0.14573 m -48.02429,48.75226 c -1.20828,-1.95047 -2.13187,-4.19064 -3.72159,-5.75299 -1.12378,-1.10443 -3.44439,-2.1101 -4.69195,-1.66153 -1.30338,0.46869 -2.7634,2.7482 -2.73249,4.20597 0.0613,2.88946 0.75388,5.89471 1.81934,8.60275 1.51419,3.84842 4.53931,4.33661 7.24539,1.13031 1.25263,-1.48416 1.50714,-3.81064 2.0813,-6.52451 m 49.20941,53.57096 c 1.887,0.28463 3.79477,0.81552 5.64459,0.65945 0.40085,-0.0338 1.16294,-2.77734 0.71549,-3.82892 -0.41428,-0.97357 -2.88907,-2.17581 -3.30023,-1.84414 -1.39521,1.12558 -2.27829,2.88595 -3.05985,5.01361 z"
     id="path6" /><path
     fill="#a91617"
     opacity="1"
     stroke="none"
     d="m 460.84022,395.61138 c -0.66541,6.69647 -0.73774,13.51834 -2.12159,20.06289 -2.75714,13.03928 -7.16674,25.78836 -9.10907,38.9213 -1.45483,9.83688 -5.02478,17.70715 -11.98095,24.4491 -6.92231,6.70895 -13.65192,13.61633 -20.55835,20.34188 -5.6546,5.50653 -11.39807,10.9242 -17.18878,16.28766 -5.34003,4.94592 -11.73462,7.2099 -19.01056,7.15668 -7.65689,-0.056 -15.31464,-0.0229 -22.97187,0.008 -6.58889,0.0262 -12.47616,-2.13385 -17.15643,-6.61359 -12.18869,-11.66644 -24.24155,-23.48038 -36.12115,-35.46106 -4.13333,-4.16849 -7.74405,-8.88965 -11.28455,-13.59106 -1.09741,-1.45728 -1.17657,-3.68134 -1.29495,-5.81153 2.47155,3.27295 3.91116,7.38828 6.66357,10.23365 13.17652,13.62115 26.62268,26.98583 40.14575,40.26574 8.44993,8.29804 18.85605,10.25739 30.59794,8.72223 0,-3.0509 0,-5.698 0.44372,-8.49377 2.77234,-0.18848 5.11801,-0.42963 7.42685,-0.2348 13.11868,1.10693 23.00857,-4.67463 30.32205,-14.90684 5.3039,-7.42059 10.20569,-15.21813 14.44238,-23.29077 6.22907,-11.86895 3.91108,-15.26373 -9.66925,-15.52542 -14.31573,-0.27588 -28.63311,-0.46362 -42.92626,-0.99347 -0.0121,-1.11349 -0.0477,-1.92337 0.12341,-2.92443 0.36139,-0.29651 0.51605,-0.4018 1.07702,-0.39252 10.54902,-3.46625 20.69928,-7.02576 30.83142,-10.63605 5.92866,-2.11249 11.72632,-5.70514 17.76435,-6.14581 9.88177,-0.72122 16.59729,-6.13126 23.23883,-12.10465 8.87286,-7.98019 13.50622,-18.73602 18.31647,-29.32287 z"
     id="path8" /><path
     fill="#e13132"
     opacity="1"
     stroke="none"
     d="m 369.4054,454.40444 c 0.0356,0.8099 0.0713,1.61978 -0.0109,2.83282 -0.11777,0.4032 0.0134,0.64398 -0.44471,0.55103 -15.42092,0.12249 -30.39599,0.0419 -45.34228,0.6589 -9.75818,0.4028 -11.81183,3.81732 -7.46716,12.44031 4.17126,8.27893 9.10379,16.20557 14.10913,24.02631 9.21893,14.40451 22.70636,19.11557 39.16217,16.65176 -0.0318,0.2243 0.0376,0.67212 0.0376,0.67212 0,2.64709 0,5.29419 0,8.34509 -11.74189,1.53516 -22.14801,-0.42419 -30.59794,-8.72223 -13.52307,-13.27991 -26.96923,-26.64459 -40.14575,-40.26574 -2.75241,-2.84537 -4.19202,-6.9607 -6.55252,-10.61695 -0.36612,-0.54971 -0.41635,-0.97327 -0.21609,-2.01147 -0.22373,-4.19086 -0.17731,-7.93405 -1.26181,-11.3144 -4.86722,-15.17114 -8.38651,-30.61148 -9.98529,-46.26062 2.02368,3.52796 3.59725,6.99305 5.5577,10.22336 4.80246,7.91324 9.98328,15.52527 19.06458,19.83274 2.8313,1.6911 5.39276,4.24484 8.04324,4.34079 10.03852,0.36358 18.52115,5.03384 27.49369,8.53506 9.39892,3.66754 19.02792,6.74548 28.55636,10.08112 z"
     id="path10" /><path
     fill="#b5b1b1"
     opacity="1"
     stroke="none"
     d="m 460.85859,395.58705 c -4.82862,10.61118 -9.46198,21.36701 -18.33484,29.3472 -6.64154,5.97339 -13.35706,11.38343 -23.23883,12.10465 -6.03803,0.44067 -11.83569,4.03332 -17.76435,6.14581 -10.13214,3.61029 -20.2824,7.1698 -30.88861,10.2756 -0.4024,-1.68603 -0.3413,-2.897 0.0838,-4.27188 17.34907,-3.7684 32.60468,-11.66787 47.72968,-19.70797 5.34985,-2.84385 10.44464,-6.62012 14.75153,-10.88407 10.68066,-10.57416 17.203,-23.99823 23.80346,-37.26666 1.93921,-3.89838 0.27039,-6.5943 -3.65289,-8.30374 -4.78271,-2.08396 -8.60046,0.3085 -12.56915,2.26242 -5.87,2.89007 -11.456,7.05789 -17.66132,8.43292 -17.7951,3.94327 -35.84076,6.75552 -53.7774,9.6247 0.0307,-1.67554 0.0509,-2.96335 0.0711,-4.25116 0,0 0.0495,-0.40607 0.0798,-0.60724 10.50479,-1.82798 21.02896,-3.20307 31.41946,-5.25522 2.65875,-0.52512 5.81091,-2.66071 7.14972,-4.97452 3.70264,-6.39911 10.04694,-8.38266 16.05847,-10.9874 6.09192,-2.63955 12.35913,-4.87142 18.50348,-7.39419 10.57935,-4.34366 11.7702,-4.04047 18.43079,5.2034 0.48504,0.67325 0.9743,1.34341 1.74658,2.24557 0.25104,3.67734 0.21722,7.12409 -0.0311,11.36182 -0.75775,6.13947 -1.30102,11.48801 -1.8443,16.83655 0,0 -0.0467,0.0391 -0.0651,0.0634 z"
     id="path12" /><path
     fill="#fefcfc"
     opacity="1"
     stroke="none"
     d="m 369.0365,388.9836 c 0.35407,1.39908 0.3339,2.68689 0.27405,4.47699 -0.0397,0.50232 0.17264,0.60635 -0.21985,0.48233 -4.16903,-0.74445 -7.94168,-1.38962 -11.72271,-1.9812 -21.7313,-3.3999 -43.82132,-5.56687 -62.8255,-18.31439 -4.17368,-2.7996 -8.10834,-1.65662 -11.39862,1.29116 -3.26862,2.92835 -1.01496,6.22977 0.55682,9.08228 4.80881,8.72726 9.78992,17.35959 14.58594,26.35294 -1.41681,2.90017 -2.71558,5.47625 -4.01435,8.05233 -0.44241,-0.10174 -0.88482,-0.20346 -1.32724,-0.3052 0,-3.85569 0,-7.7114 0,-12.60678 -1.84079,2.38406 -2.86087,3.70523 -4.75195,6.15444 0,-4.90695 0,-8.38912 0,-12.69439 -1.50973,1.92019 -2.41595,3.07275 -4.02365,5.11755 0.47259,-3.73205 0.79675,-6.29172 1.20926,-9.54919 -1.29608,2.14004 -2.15308,3.55508 -3.01007,4.97015 -0.32532,-0.13943 -0.65067,-0.2789 -0.97599,-0.41833 0.33231,-2.65491 0.66459,-5.30985 1.05408,-8.42188 -1.26266,1.75443 -2.18823,3.04044 -3.30365,3.98599 -0.83459,-4.5953 -1.4794,-8.85009 -2.12423,-13.10488 0,0 0.0571,-0.44922 0.0982,-1.07432 -0.35373,-3.78125 -0.7485,-6.9374 -1.14328,-10.09359 0.10318,-0.17462 0.12854,-0.35996 0.24017,-0.93302 0.78504,-1.52966 1.40598,-2.68222 2.38288,-3.73492 1.76507,1.42267 3.17419,2.74542 4.84186,4.31088 -0.15537,-2.75827 -0.28971,-5.14358 -0.42408,-7.5289 0.23566,-0.0714 0.47129,-0.14291 0.70691,-0.21438 0.96012,2.00753 1.92023,4.01504 3.36011,7.02569 0.29337,-4.13711 0.49384,-6.96429 0.69431,-9.7915 0.3435,-0.0153 0.68704,-0.0306 1.03054,-0.0458 0.91162,3.24817 1.82328,6.49634 3.04868,10.86252 1.48862,-3.8085 2.47906,-6.3425 3.46951,-8.87647 0.4371,0.0232 0.87421,0.0464 1.31131,0.0696 0.44098,3.51837 0.88199,7.03675 1.41199,11.26545 1.72952,-3.35077 3.10364,-6.013 4.47775,-8.67524 0.42551,0.0398 0.85105,0.0796 1.27658,0.11945 1.15958,4.44888 2.31916,8.8978 3.77918,14.49951 2.4967,-4.26742 4.31524,-7.37573 6.13379,-10.48404 0.41671,0.11441 0.83343,0.22882 1.25015,0.34323 0.39844,4.03586 0.7969,8.07172 1.19534,12.10761 0.47254,0.0485 0.94507,0.0969 1.41761,0.14538 1.21047,-1.69937 2.25387,-3.55822 3.67977,-5.05197 1.34723,-1.41138 3.09635,-2.43915 4.66871,-3.63565 0.32162,0.30457 0.64324,0.60916 1.17434,1.28778 0.20944,0.37406 0.57865,0.61276 0.57865,0.61276 4.48611,7.52707 11.41342,10.48658 19.86316,11.34525 7.08392,0.71988 14.08276,2.27707 21.49352,3.57483 z"
     id="path14" /><path
     fill="#a91617"
     opacity="1"
     stroke="none"
     d="m 278.24085,365.61782 c -0.62094,1.15255 -1.24188,2.30511 -2.09234,3.70758 -1.90705,-12.4928 0.23202,-25.02747 3.82147,-37.00421 3.43167,-11.45023 8.88141,-22.31611 13.79925,-33.27952 0.78574,-1.75161 3.2887,-2.96948 5.24854,-3.91372 5.99466,-2.88825 12.16055,-5.42255 18.13952,-8.34095 1.19422,-0.58288 1.85663,-2.25543 3.09299,-3.51165 -1.33801,2.16363 -2.53165,5.32223 -4.76446,6.48452 -5.61188,2.92109 -11.72782,4.86063 -17.55433,7.39463 -1.05172,0.45733 -1.82287,1.78616 -2.49505,2.8562 -11.52066,18.33999 -16.7244,38.68512 -18.85202,59.97473 -0.15485,1.54965 0.41263,3.17148 1.02511,5.07416 0.38086,0.31439 0.63132,0.55823 0.63132,0.55823 z"
     id="path16" /><path
     fill="#a91617"
     opacity="1"
     stroke="none"
     d="m 276.85322,382.00801 c 0.81045,3.8003 1.45526,8.05509 2.21215,13.04877 0.52485,2.54755 0.9376,4.3562 1.35035,6.16489 1.87289,15.81884 5.39218,31.25918 10.2594,46.43032 1.0845,3.38035 1.03808,7.12354 1.2705,10.99311 -1.17144,-3.46454 -2.13891,-7.21359 -3.02395,-10.98203 -3.29892,-14.04651 -6.88651,-28.03598 -9.72513,-42.17547 -1.51355,-7.53907 -1.71521,-15.34153 -2.34332,-23.47959 z"
     id="path18" /><path
     fill="#a91617"
     opacity="1"
     stroke="none"
     d="m 353.10413,272.22316 c -2.29818,0.73096 -5.1062,1.15781 -7.76944,2.02786 -7.68985,2.51209 -15.32129,5.20276 -23.34006,7.84171 0.79691,-1.05566 1.78058,-2.52527 3.14838,-3.13931 8.74597,-3.92664 17.75696,-6.93015 27.96112,-6.73026 z"
     id="path20" /><path
     fill="#a91617"
     opacity="1"
     stroke="none"
     d="m 461.28644,395.38808 c 0.18055,-5.21298 0.72382,-10.56152 1.4726,-16.25745 -0.23297,5.1424 -0.67139,10.63214 -1.4726,16.25745 z"
     id="path22" /><path
     fill="#a91617"
     opacity="1"
     stroke="none"
     d="m 275.81623,370.85832 c 0.55231,2.68348 0.94708,5.83963 1.21615,9.41092 -0.54171,-2.70266 -0.9577,-5.82043 -1.21615,-9.41092 z"
     id="path24" /><path
     fill="#a91617"
     opacity="1"
     stroke="none"
     d="m 321.29004,282.21337 c 0.1804,0.27572 0.0227,0.51391 -0.42797,0.77774 -0.2779,-0.28672 -0.1503,-0.56702 0.42797,-0.77774 z"
     id="path26" /><path
     fill="#000000"
     opacity="1"
     stroke="none"
     d="m 442.99525,315.87151 c -0.13825,3.2781 0.0925,6.37582 -0.89747,9.01581 -0.63537,1.69442 -3.31054,3.98687 -4.63897,3.73458 -1.92591,-0.36572 -4.10407,-2.48272 -5.01917,-4.40329 -1.55346,-3.26028 2.90735,-10.54928 6.46991,-10.83508 1.24793,-0.10013 2.62128,1.36392 4.0857,2.48798 z"
     id="path28" /><path
     fill="#000000"
     opacity="1"
     stroke="none"
     d="m 377.39924,375.02303 c -0.007,-1.85669 -0.0402,-3.62342 0.69516,-4.97104 0.28323,-0.51917 2.72458,-0.57202 3.44369,0.0362 0.9184,0.77674 1.08893,2.43766 1.58185,3.7175 -1.81317,0.49149 -3.62634,0.98301 -5.7207,1.21729 z"
     id="path30" /><path
     fill="#b5b1b1"
     opacity="1"
     stroke="none"
     d="m 278.59681,365.71767 c -0.35596,-0.0999 -0.60642,-0.34369 -0.65021,-0.51297 7.19025,-9.52887 7.25168,-9.69223 18.8566,-5.32871 9.73742,3.66138 19.30951,7.76249 29.03921,11.97797 -1.48794,1.50552 -3.23706,2.53329 -4.58429,3.94467 -1.4259,1.49375 -2.4693,3.3526 -3.67977,5.05197 -0.47254,-0.0485 -0.94507,-0.0969 -1.41761,-0.14538 -0.39844,-4.03589 -0.7969,-8.07175 -1.19534,-12.10761 -0.41672,-0.11441 -0.83344,-0.22882 -1.25015,-0.34323 -1.81855,3.10831 -3.63709,6.21662 -6.13379,10.48404 -1.46002,-5.60171 -2.6196,-10.05063 -3.77918,-14.49951 -0.42553,-0.0398 -0.85107,-0.0796 -1.27658,-0.11945 -1.37411,2.66224 -2.74823,5.32447 -4.47775,8.67524 -0.53,-4.2287 -0.97101,-7.74708 -1.41199,-11.26545 -0.4371,-0.0232 -0.87421,-0.0464 -1.31131,-0.0696 -0.99045,2.53397 -1.98089,5.06797 -3.46951,8.87647 -1.2254,-4.36618 -2.13706,-7.61435 -3.04868,-10.86252 -0.3435,0.0153 -0.68704,0.0306 -1.03054,0.0458 -0.20047,2.82721 -0.40094,5.65439 -0.69431,9.7915 -1.43988,-3.01065 -2.39999,-5.01816 -3.36011,-7.02569 -0.23562,0.0715 -0.47125,0.14294 -0.70691,0.21438 0.13437,2.38532 0.26871,4.77063 0.42408,7.5289 -1.66767,-1.56546 -3.07679,-2.88821 -4.84186,-4.31088 z"
     id="path32" /><path
     fill="#1d1d1d"
     opacity="1"
     stroke="none"
     d="m 307.21354,321.316 c -0.6406,2.32925 -0.89511,4.65573 -2.14774,6.13989 -2.70608,3.2063 -5.7312,2.71811 -7.24539,-1.13031 -1.06546,-2.70804 -1.75809,-5.71329 -1.81934,-8.60275 -0.0309,-1.45777 1.42911,-3.73728 2.73249,-4.20597 1.24756,-0.44857 3.56817,0.5571 4.69195,1.66153 1.58972,1.56235 2.51331,3.80252 3.78803,6.13761 z"
     id="path34" /><path
     fill="#1d1d1d"
     opacity="1"
     stroke="none"
     d="m 356.20789,374.19744 c 0.93018,-1.82276 1.81326,-3.58313 3.20847,-4.70871 0.41116,-0.33167 2.88595,0.87057 3.30023,1.84414 0.44745,1.05158 -0.31464,3.79511 -0.71549,3.82892 -1.84982,0.15607 -3.75759,-0.37482 -5.79321,-0.96435 z"
     id="path36" /><path
     fill="#b5b1b1"
     opacity="1"
     stroke="none"
     d="m 327.76517,373.91579 c -0.0854,0.14773 -0.45456,-0.091 -0.45645,-0.20538 -0.002,-0.11441 0.3263,-0.20499 0.3263,-0.20499 0,0 0.21551,0.2626 0.13015,0.41037 z"
     id="path38" /><path
     fill="#b5b1b1"
     opacity="1"
     stroke="none"
     d="m 369.37098,457.54088 c 14.41089,0.12668 28.72827,0.31442 43.044,0.5903 13.58033,0.26169 15.89832,3.65647 9.66925,15.52542 -4.23669,8.07264 -9.13848,15.87018 -14.44238,23.29077 -7.31348,10.23221 -17.20337,16.01377 -30.32205,14.90684 -2.30884,-0.19483 -4.65451,0.0463 -7.42685,0.2348 -0.44372,0.14868 -0.51312,-0.29914 -0.4689,-0.94471 0.0241,-18.18469 0.004,-35.72387 -0.0162,-53.26306 0,0 -0.13113,-0.24078 -0.0369,-0.34036 z"
     id="path40" /><path
     fill="#fefcfc"
     opacity="1"
     stroke="none"
     d="m 370.35175,449.35231 c -0.0611,1.211 -0.12219,2.42197 -0.1261,3.99341 -0.0975,0.46576 -0.25213,0.57105 -0.61352,0.86752 -9.73517,-3.14444 -19.36417,-6.22238 -28.76309,-9.88992 -8.97254,-3.50122 -17.45517,-8.17148 -27.49369,-8.53506 -2.65048,-0.096 -5.21194,-2.64969 -7.95569,-4.79059 -0.28567,-4.67417 -0.42993,-8.63257 -0.23614,-12.46533 4.27313,3.13339 7.8616,6.82989 12.2092,9.01803 12.40942,6.24564 25.03149,12.09915 37.77637,17.63138 4.46151,1.93664 9.52389,2.48914 14.51986,3.82431 0.36621,0.21579 0.52448,0.28101 0.6828,0.34625 z"
     id="path42" /><path
     fill="#fefcfc"
     opacity="1"
     stroke="none"
     d="m 368.9498,457.78829 c 0.47821,17.63214 0.49833,35.17132 0.50608,53.13171 -16.50003,3.10938 -29.98746,-1.60168 -39.20639,-16.00619 -5.00534,-7.82074 -9.93787,-15.74738 -14.10913,-24.02631 -4.34467,-8.62299 -2.29102,-12.03751 7.46716,-12.44031 14.94629,-0.61697 29.92136,-0.53641 45.34228,-0.6589 z"
     id="path44" /><path
     fill="#b5b1b1"
     opacity="1"
     stroke="none"
     d="m 304.82551,418.40666 c 0.14422,3.95844 0.28848,7.91684 0.34521,12.32508 -8.93991,-3.59174 -14.12073,-11.20377 -18.92319,-19.11701 -1.96045,-3.23031 -3.53402,-6.6954 -5.5577,-10.22336 -0.68686,-1.97839 -1.09961,-3.78704 -1.43464,-5.9941 1.0033,-1.68442 1.92887,-2.97043 3.19153,-4.72486 -0.38949,3.11203 -0.72177,5.76697 -1.05408,8.42188 0.32532,0.13943 0.65067,0.2789 0.97599,0.41833 0.85699,-1.41507 1.71399,-2.83011 3.01007,-4.97015 -0.41251,3.25747 -0.73667,5.81714 -1.20926,9.54919 1.6077,-2.0448 2.51392,-3.19736 4.02365,-5.11755 0,4.30527 0,7.78744 0,12.69439 1.89108,-2.44921 2.91116,-3.77038 4.75195,-6.15444 0,4.89538 0,8.75109 0,12.60678 0.44242,0.10174 0.88483,0.20346 1.32724,0.3052 1.29877,-2.57608 2.59754,-5.15216 4.33002,-8.08056 0.83542,0.34121 1.23709,1.03479 1.26257,1.79351 -0.37615,4.41529 -0.37615,8.76539 -0.37615,14.59021 2.2507,-3.50308 3.71053,-5.77526 5.1817,-8.13458 0.0113,-0.0871 0.15509,-0.18796 0.15509,-0.18796 z"
     id="path46" /><path
     fill="#000000"
     opacity="1"
     stroke="none"
     d="m 370.71576,449.18843 c -0.52233,0.0986 -0.6806,0.0334 -1.03729,-0.6427 -0.19735,-18.56689 -0.19632,-36.52286 -0.19528,-54.47879 0,0 -0.21234,-0.10403 -0.1832,-0.21862 17.97632,-3.37147 36.02198,-6.18372 53.81708,-10.12699 6.20532,-1.37503 11.79132,-5.54285 17.66132,-8.43292 3.96869,-1.95392 7.78644,-4.34638 12.56915,-2.26242 3.92328,1.70944 5.5921,4.40536 3.65289,8.30374 -6.60046,13.26843 -13.1228,26.6925 -23.80346,37.26666 -4.30689,4.26395 -9.40168,8.04022 -14.75153,10.88407 -15.125,8.0401 -30.38061,15.93957 -47.72968,19.70797 z"
     id="path48" /><path
     fill="#1d1d1d"
     opacity="1"
     stroke="none"
     d="m 369.0907,393.94292 c 0.39145,18.07995 0.39042,36.03592 0.37983,54.45218 -4.79755,-0.72421 -9.85993,-1.27671 -14.32144,-3.21335 -12.74488,-5.53223 -25.36695,-11.38574 -37.77637,-17.63138 -4.3476,-2.18814 -7.93607,-5.88464 -12.2092,-9.01803 -0.33801,-0.12568 -0.48184,-0.0248 -0.36884,-0.26511 -1.4425,-2.22467 -2.99804,-4.20905 -4.55359,-6.19342 -0.4017,-0.69354 -0.80337,-1.38712 -1.52072,-2.05243 -5.22976,-8.64102 -10.21087,-17.27335 -15.01968,-26.00061 -1.57178,-2.85251 -3.82544,-6.15393 -0.55682,-9.08228 3.29028,-2.94778 7.22494,-4.09076 11.39862,-1.29116 19.00418,12.74752 41.0942,14.91449 62.8255,18.31439 3.78103,0.59158 7.55368,1.23675 11.72271,1.9812 z"
     id="path50" /><path
     fill="#fefcfc"
     opacity="1"
     stroke="none"
     d="m 299.8649,412.13899 c 1.93174,1.91919 3.48728,3.90357 4.91852,6.21537 -1.58417,2.59958 -3.044,4.87176 -5.2947,8.37484 0,-5.82482 0,-10.17492 0.37618,-14.59021 z"
     id="path52" /></g>
</svg>
